HIERARCHY
ROOT Hips
{
 OFFSET 0.000000 0.000000 0.000000
 CHANNELS 6 Xposition Yposition Zposition Yrotation Xrotation Zrotation
 JOINT Chest
 {
  OFFSET 0.000000 9.585900 0.002600
  CHANNELS 3 Yrotation Xrotation Zrotation
  JOINT Chest2
  {
   OFFSET 0.000000 9.601200 -0.005300
   CHANNELS 3 Yrotation Xrotation Zrotation
   JOINT Chest3
   {
    OFFSET 0.000000 9.561800 0.000000
    CHANNELS 3 Yrotation Xrotation Zrotation
    JOINT Chest4
    {
     OFFSET 0.000000 9.552100 0.000000
     CHANNELS 3 Yrotation Xrotation Zrotation
     JOINT Neck
     {
      OFFSET 0.000000 14.453000 0.000000
      CHANNELS 3 Yrotation Xrotation Zrotation
      JOINT Head
      {
       OFFSET 0.000000 8.936500 -0.011300
       CHANNELS 3 Yrotation Xrotation Zrotation
       End Site
       {
        OFFSET 0.000000 17.073600 -0.006000
       }
      }
     }
     JOINT RightCollar
     {
      OFFSET -2.921100 9.558500 0.000000
      CHANNELS 3 Yrotation Xrotation Zrotation
      JOINT RightShoulder
      {
       OFFSET -13.519700 0.000000 0.000000
       CHANNELS 3 Yrotation Xrotation Zrotation
       JOINT RightElbow
       {
        OFFSET 0.000000 -29.696600 0.000000
        CHANNELS 3 Yrotation Xrotation Zrotation
        JOINT RightWrist
        {
         OFFSET 0.000000 -24.004700 0.000000
         CHANNELS 3 Yrotation Xrotation Zrotation
         End Site
         {
          OFFSET 0.000000 -17.728500 0.000000
         }
        }
       }
      }
     }
     JOINT LeftCollar
     {
      OFFSET 2.921100 9.558500 0.000000
      CHANNELS 3 Yrotation Xrotation Zrotation
      JOINT LeftShoulder
      {
       OFFSET 13.519700 0.000000 0.000000
       CHANNELS 3 Yrotation Xrotation Zrotation
       JOINT LeftElbow
       {
        OFFSET 0.000000 -29.696600 0.000000
        CHANNELS 3 Yrotation Xrotation Zrotation
        JOINT LeftWrist
        {
         OFFSET 0.000000 -24.004700 0.000000
         CHANNELS 3 Yrotation Xrotation Zrotation
         End Site
         {
          OFFSET 0.000000 -17.728500 0.000000
         }
        }
       }
      }
     }
    }
   }
  }
 }
 JOINT RightHip
 {
  OFFSET -7.771700 -0.012900 -0.001300
  CHANNELS 3 Yrotation Xrotation Zrotation
  JOINT RightKnee
  {
   OFFSET 0.000000 -40.869800 0.001200
   CHANNELS 3 Yrotation Xrotation Zrotation
   JOINT RightAnkle
   {
    OFFSET 0.000000 -39.717900 0.002100
    CHANNELS 3 Yrotation Xrotation Zrotation
    JOINT RightToe
    {
     OFFSET 0.000000 -4.965400 11.033500
     CHANNELS 3 Yrotation Xrotation Zrotation
     End Site
     {
      OFFSET 0.000000 -1.423100 5.872300
     }
    }
   }
  }
 }
 JOINT LeftHip
 {
  OFFSET 7.771700 -0.012900 -0.001300
  CHANNELS 3 Yrotation Xrotation Zrotation
  JOINT LeftKnee
  {
   OFFSET 0.000000 -40.869800 0.001200
   CHANNELS 3 Yrotation Xrotation Zrotation
   JOINT LeftAnkle
   {
    OFFSET 0.000000 -39.717900 0.002100
    CHANNELS 3 Yrotation Xrotation Zrotation
    JOINT LeftToe
    {
     OFFSET 0.000000 -4.965400 11.033500
     CHANNELS 3 Yrotation Xrotation Zrotation
     End Site
     {
      OFFSET 0.000000 -1.423100 5.872300
     }
    }
   }
  }
 }
}
MOTION
Frames: 8
Frame Time: 0.008333
-45.902096 56.122543 44.182895 -168.494020 -29.746117 -11.383808 -4.280678 16.533611 6.254368 -2.802576 9.271279 1.717801 -3.458925 11.598366 2.087254 -2.808924 9.263276 1.719978 1.941675 19.389996 0.273031 1.997084 -5.218252 -0.152633 4.066696 -4.650335 -6.353700 3.938761 -11.554643 5.036975 45.546075 -75.910671 -30.291562 5.912552 -2.973356 -11.760066 -11.285434 0.504787 -4.507516 -3.761814 -9.762768 3.035903 -98.540842 -71.952777 101.238288 11.105553 -10.718921 -11.758156 -23.866318 -28.769999 4.497595 22.275722 89.386746 19.590655 0.932345 -25.844463 -1.403078 -0.097532 0.680456 -0.039096 -18.308684 -45.868640 6.572036 169.420276 72.125770 167.927941 1.224509 -22.136020 -1.792547 -1.903204 -4.718047 -0.828610
-45.902936 56.119164 44.187241 -168.515135 -29.733933 -11.372295 -4.311773 16.512059 6.225905 -2.788463 9.272732 1.720952 -3.523072 11.562532 2.068256 -2.802759 9.263325 1.712388 2.001895 19.423190 0.231405 2.041699 -5.224929 -0.284084 4.152297 -4.692545 -6.434276 4.032356 -11.655731 5.051180 42.022515 -75.979932 -26.813067 5.800484 -3.067306 -11.413857 -11.281598 0.485646 -4.512569 -3.770646 -9.847288 3.019735 -97.940153 -72.197175 100.596417 11.131279 -10.655877 -11.833039 -23.855936 -28.794552 4.510365 21.930030 89.393297 19.240680 0.932401 -25.837774 -1.402092 -0.098310 0.679592 -0.038957 -18.302405 -45.882289 6.579388 169.454214 72.130661 167.959533 1.216515 -22.150038 -1.786134 -1.886966 -4.703299 -0.831390
-45.908583 56.113922 44.194213 -168.504427 -29.703854 -11.342840 -4.376739 16.469877 6.170964 -2.802566 9.263424 1.712364 -3.537995 11.546841 2.059207 -2.816693 9.253577 1.703955 2.026843 19.426607 0.127267 2.107173 -5.196921 -0.363607 4.236257 -4.720197 -6.515216 4.099020 -11.754815 5.071845 38.409989 -76.024637 -23.236178 5.677945 -3.201732 -11.120165 -11.287718 0.468405 -4.518287 -3.775502 -9.941254 3.009629 -97.362264 -72.490018 99.969054 11.156054 -10.579898 -11.899524 -23.863865 -28.846146 4.489042 22.647673 89.400497 19.950748 0.926582 -25.840909 -1.399509 -0.097584 0.682282 -0.037632 -18.302563 -45.920229 6.547096 169.477134 72.133557 167.978254 1.183321 -22.185902 -1.790113 -1.850499 -4.665089 -0.815851
-45.908236 56.112342 44.196537 -168.510030 -29.706973 -11.344486 -4.408802 16.457557 6.156057 -2.817397 9.253731 1.703960 -3.519495 11.554490 2.057483 -2.855898 9.218020 1.694732 2.047935 19.435303 0.023463 2.167890 -5.162896 -0.441716 4.315773 -4.732817 -6.595615 4.145755 -11.854661 5.099764 34.645829 -76.045303 -19.503024 5.542952 -3.370425 -10.895433 -11.324785 0.403630 -4.523718 -3.757496 -9.994516 3.000071 -96.792537 -72.813290 99.353167 11.170559 -10.489361 -11.962345 -23.863937 -28.845907 4.499734 22.716165 89.404842 20.014276 0.919614 -25.837414 -1.400339 -0.097262 0.682049 -0.034776 -18.307623 -45.918941 6.546333 169.473816 72.132156 167.977268 1.191800 -22.185850 -1.797246 -1.854804 -4.663902 -0.814065
-45.902675 56.113955 44.194620 -168.546475 -29.742817 -11.364449 -4.428450 16.449632 6.161631 -2.800936 9.266032 1.701509 -3.544828 11.533039 2.040073 -2.852955 9.221456 1.685715 2.076636 19.457109 -0.057351 2.217174 -5.136963 -0.534104 4.389779 -4.740982 -6.673202 4.185138 -11.953029 5.135018 30.627910 -76.043929 -15.518275 5.397128 -3.563973 -10.747136 -11.302188 0.408022 -4.533120 -3.823792 -10.117440 3.002601 -96.205940 -73.139263 98.735625 11.183158 -10.392213 -12.033446 -23.830147 -28.803460 4.532902 21.744382 89.395724 19.047825 0.922362 -25.824932 -1.404755 -0.101180 0.678304 -0.033744 -18.301826 -45.881717 6.576497 169.461552 72.128195 167.969009 1.231079 -22.147824 -1.794689 -1.885912 -4.701737 -0.834379
-45.901415 56.113097 44.195841 -168.560764 -29.756342 -11.362837 -4.441951 16.445296 6.150887 -2.851720 9.226949 1.677588 -3.533252 11.545595 2.030584 -2.819752 9.246313 1.686165 2.072041 19.453944 -0.139848 2.265079 -5.116426 -0.623312 4.433965 -4.779151 -6.750871 4.233336 -12.048382 5.172274 26.227391 -76.007588 -11.171753 5.235932 -3.775670 -10.659563 -11.296690 0.399007 -4.537058 -3.915063 -10.257494 3.003618 -95.602234 -73.451760 98.119288 11.209984 -10.294555 -12.117455 -23.812493 -28.794884 4.535293 21.695883 89.399130 19.002627 0.924053 -25.821921 -1.406943 -0.096650 0.679920 -0.037180 -18.291855 -45.873474 6.571027 169.441634 72.122390 167.950973 1.246403 -22.135928 -1.795347 -1.898310 -4.713608 -0.841943
-45.900174 56.111547 44.197939 -168.569184 -29.762451 -11.359639 -4.447656 16.443219 6.143917 -2.866447 9.219363 1.669117 -3.556967 11.533596 2.016662 -2.847247 9.230151 1.672945 2.114925 19.474646 -0.214134 2.310715 -5.104752 -0.710414 4.528102 -4.798043 -6.816047 4.299549 -12.141957 5.210388 21.451260 -75.904142 -6.491075 5.044246 -4.005444 -10.597990 -11.297547 0.321099 -4.545022 -3.947674 -10.309424 3.001197 -95.007320 -73.755857 97.522205 11.252391 -10.197162 -12.194289 -23.800226 -28.794518 4.535006 22.487771 89.397961 19.799060 0.915789 -25.820148 -1.409220 -0.094071 0.681070 -0.038584 -18.285531 -45.871595 6.558757 169.432902 72.120991 167.950284 1.260840 -22.131223 -1.807280 -1.900858 -4.715779 -0.842224
-45.898548 56.109430 44.200700 -168.568631 -29.761204 -11.358766 -4.461724 16.435792 6.135742 -2.863151 9.222228 1.668357 -3.595711 11.509107 1.999152 -2.871700 9.217221 1.660160 2.153381 19.485868 -0.286443 2.352201 -5.099956 -0.795030 4.607402 -4.787053 -6.840491 4.401337 -12.272093 5.212957 16.432337 -75.703697 -1.615282 4.812707 -4.259931 -10.529483 -11.291323 0.278631 -4.549343 -3.989319 -10.399923 2.997658 -94.449308 -74.055684 96.964054 11.300676 -10.101884 -12.233992 -23.799657 -28.800357 4.534290 23.057757 89.395985 20.372709 0.916793 -25.818371 -1.414670 -0.096683 0.681740 -0.039593 -18.289307 -45.875806 6.542338 169.407841 72.120964 167.944792 1.256882 -22.131306 -1.830733 -1.882580 -4.709816 -0.835064
